# xmcd
#
# Track frame offsets: 
#        150
#        21348
#        39000
#        63304
#        83783
#        104588
#        125818
#        149383
#        167173
#        186070
#        200456
#        229436
#        251802
#        284930
#        304507
#
# Disc length: 4400 seconds
#
# Revision: 0
# Processed by: cddbd v1.5.2PL0 Copyright (c) Steve Scherf et al.
# Submitted via: ExactAudioCopy v1.0b3
#
DISCID=e1112e0f
DTITLE=Eric Clapton - Best of Eric Clapton
DYEAR=1999
DGENRE=Blues
TTITLE0=Blue eyes blue
TTITLE1=Change the World
TTITLE2=My fahter's eyes
TTITLE3=Tears in heaven
TTITLE4=Layla
TTITLE5=Pretending
TTITLE6=Bad core
TTITLE7=Before you accuse me
TTITLE8=It's in the way that you use it
TTITLE9=Forever man
TTITLE10=Running on faith
TTITLE11=She's waiting
TTITLE12=River of tears
TTITLE13=Get lost
TTITLE14=Wonderful tonight
EXTD=
EXTT0=
EXTT1=
EXTT2=
EXTT3=
EXTT4=
EXTT5=
EXTT6=
EXTT7=
EXTT8=
EXTT9=
EXTT10=
EXTT11=
EXTT12=
EXTT13=
EXTT14=
PLAYORDER=
